<?xml version="1.0" encoding="UTF-8"?>
<svg width="20px" height="15px" viewBox="0 0 20 15" version="1.1" xmlns="http://www.w3.org/2000/svg" xmlns:xlink="http://www.w3.org/1999/xlink">
    <!-- Generator: Sketch 41.2 (35397) - http://www.bohemiancoding.com/sketch -->
    <title>Assets/Links/ArrowLink-Green</title>
    <desc>Created with Sketch.</desc>
    <defs></defs>
    <g id="Symbols" stroke="none" stroke-width="1" fill="none" fill-rule="evenodd">
        <g id="ContentTypes/Cards/ResourceCard-Photo" transform="translate(-335.000000, -471.000000)" fill="#C1CE20">
            <g id="Card-Explore">
                <g id="Assets/Links/ArrowLink-Green" transform="translate(335.000000, 471.000000)">
                    <path d="M19.702451,6.50616112 L13.6508824,0.261248712 C13.3133333,-0.087082904 12.7661111,-0.087082904 12.4294118,0.261248712 C12.0918954,0.609580328 12.0918954,1.1742829 12.4294118,1.52170398 L17.0481699,6.28796909 L0.87,6.28796909 C0.389738562,6.28796909 0,6.6901911 0,7.18579391 C0,7.68132927 0.389738562,8.08355129 0.87,8.08355129 L17.0481699,8.08355129 L12.4294444,12.8498164 C12.0918954,13.198148 12.0918954,13.7628506 12.4294444,14.1102717 C12.7669935,14.4577265 13.314183,14.4586033 13.6508824,14.1102717 L19.7042157,7.86269508 C19.7216013,7.84741827 19.7433333,7.84205621 19.7598693,7.82586885 C19.7868301,7.79804684 19.7868301,7.75943326 19.8094771,7.72891335 C19.8834314,7.63462201 19.9356209,7.53142763 19.9669281,7.42007213 C19.9782353,7.37700703 19.9860784,7.33927026 19.9904248,7.29529461 C20.0261111,7.02864169 19.9591176,6.75032037 19.7598693,6.54565152 C19.7424837,6.52771054 19.7198366,6.52231475 19.702451,6.50616112 Z" id="Card-Arrow"></path>
                </g>
            </g>
        </g>
    </g>
</svg>