<svg xmlns="http://www.w3.org/2000/svg" width="30" height="30" viewBox="0 0 30 30">
  <path fill="#ABB3BE" fill-rule="evenodd" d="M15,4.23913043 C14.4596739,4.23913043 14.0217391,4.67706522 14.0217391,5.2173913 L14.0217391,15 C14.0217391,15.5403261 14.4596739,15.9782609 15,15.9782609 L24.1304348,15.9782609 C24.6707609,15.9782609 25.1086957,15.5403261 25.1086957,15 C25.1086957,14.4596739 24.6707609,14.0217391 24.1304348,14.0217391 L15.9782609,14.0217391 L15.9782609,5.2173913 C15.9782609,4.67706522 15.5403261,4.23913043 15,4.23913043 M15,1.95652174 C22.2153261,1.95652174 28.0434783,7.78467391 28.0434783,15 C28.0434783,22.2153261 22.2153261,28.0434783 15,28.0434783 C7.78467391,28.0434783 1.95652174,22.2153261 1.95652174,15 C1.95652174,7.78467391 7.78467391,1.95652174 15,1.95652174 M15,0 C6.7275,0 0,6.7275 0,15 C0,23.2728261 6.72717391,30 15,30 C23.2728261,30 30,23.2728261 30,15 C30,6.7275 23.2728261,0 15,0"/>
</svg>
