<?xml version="1.0" encoding="UTF-8"?>
<svg width="26px" height="25px" viewBox="0 0 26 25" version="1.1" xmlns="http://www.w3.org/2000/svg" xmlns:xlink="http://www.w3.org/1999/xlink">
    <!-- Generator: Sketch 45 (43475) - http://www.bohemiancoding.com/sketch -->
    <title>Assets/Icons/Youtube</title>
    <desc>Created with Sketch.</desc>
    <defs></defs>
    <g id="Symbols" stroke="none" stroke-width="1" fill="none" fill-rule="evenodd">
        <g id="Sections/Navigation/FooterNav-Desktop" transform="translate(-1294.000000, -58.000000)" fill="#ABB3BE">
            <g id="Footer">
                <g id="CTA-Bar">
                    <g id="LetsSocial" transform="translate(1023.000000, 58.000000)">
                        <g id="SocialIcons01" transform="translate(143.000000, 0.000000)">
                            <g id="Assets/Icons/Social/Youtube" transform="translate(128.000000, 0.000000)">
                                <g id="Group-16" transform="translate(0.333333, 0.000000)">
                                    <path d="M19.5959444,15.9661667 C19.4120556,16.7636667 18.7595556,17.3525556 17.9742778,17.4403333 C16.1148333,17.6478333 14.2326111,17.6492222 12.3576111,17.6478333 C10.4831667,17.6492222 8.60066667,17.6478333 6.74094444,17.4403333 C5.95511111,17.3525556 5.30288889,16.7636667 5.12011111,15.9661667 C4.85816667,14.8306111 4.85816667,13.5897778 4.85816667,12.4203333 C4.85816667,11.2506111 4.86122222,10.0106111 5.12288889,8.87505556 C5.30594444,8.07672222 5.95816667,7.48838889 6.74288889,7.40088889 C8.60288889,7.19283333 10.4862222,7.19227778 12.3603889,7.19283333 C14.2345556,7.19227778 16.1173333,7.19283333 17.9770556,7.40088889 C18.7628889,7.48838889 19.4153889,8.07672222 19.599,8.87505556 C19.8606667,10.0106111 19.8581667,11.2506111 19.8581667,12.4203333 C19.8581667,13.5897778 19.8576111,14.8306111 19.5959444,15.9661667 M12.3581667,0.0306111111 C5.53983333,0.0306111111 0.0123333333,5.55783333 0.0123333333,12.3764444 C0.0123333333,19.1947778 5.53983333,24.7222778 12.3581667,24.7222778 C19.1765,24.7222778 24.704,19.1947778 24.704,12.3764444 C24.704,5.55783333 19.1765,0.0306111111 12.3581667,0.0306111111" id="Fill-14"></path>
                                    <path d="M10.405,14.8939444 C12.0761111,14.0272778 13.7322222,13.1681111 15.405,12.3008889 C13.7275,11.4256111 12.0713889,10.5622778 10.405,9.69255556 L10.405,14.8939444 Z" id="Fill-12"></path>
                                </g>
                            </g>
                        </g>
                    </g>
                </g>
            </g>
        </g>
    </g>
</svg>